<svg width="24" height="24" viewBox="0 0 24 24" fill="none" xmlns="http://www.w3.org/2000/svg">
<path fill-rule="evenodd" clip-rule="evenodd" d="M4 7C4 6.46957 4.21071 5.96086 4.58579 5.58579C4.96086 5.21071 5.46957 5 6 5H18C18.5304 5 19.0391 5.21071 19.4142 5.58579C19.7893 5.96086 20 6.46957 20 7V17C20 17.5304 19.7893 18.0391 19.4142 18.4142C19.0391 18.7893 18.5304 19 18 19H6C5.46957 19 4.96086 18.7893 4.58579 18.4142C4.21071 18.0391 4 17.5304 4 17V7ZM7.293 8.293C7.48053 8.10553 7.73484 8.00021 8 8.00021C8.26516 8.00021 8.51947 8.10553 8.707 8.293L11.707 11.293C11.8945 11.4805 11.9998 11.7348 11.9998 12C11.9998 12.2652 11.8945 12.5195 11.707 12.707L8.707 15.707C8.5184 15.8892 8.2658 15.99 8.0036 15.9877C7.7414 15.9854 7.49059 15.8802 7.30518 15.6948C7.11977 15.5094 7.0146 15.2586 7.01233 14.9964C7.01005 14.7342 7.11084 14.4816 7.293 14.293L9.586 12L7.293 9.707C7.10553 9.51947 7.00021 9.26516 7.00021 9C7.00021 8.73484 7.10553 8.48053 7.293 8.293ZM13 14C12.7348 14 12.4804 14.1054 12.2929 14.2929C12.1054 14.4804 12 14.7348 12 15C12 15.2652 12.1054 15.5196 12.2929 15.7071C12.4804 15.8946 12.7348 16 13 16H16C16.2652 16 16.5196 15.8946 16.7071 15.7071C16.8946 15.5196 17 15.2652 17 15C17 14.7348 16.8946 14.4804 16.7071 14.2929C16.5196 14.1054 16.2652 14 16 14H13Z" fill="#84919A"/>
</svg>
