<svg width="7" height="13" viewBox="0 0 7 13" fill="none" xmlns="http://www.w3.org/2000/svg">
<path d="M1.53061 0.969372L6.53061 5.96937C6.60053 6.03905 6.65601 6.12184 6.69386 6.21301C6.73172 6.30417 6.7512 6.40191 6.7512 6.50062C6.7512 6.59933 6.73172 6.69707 6.69386 6.78824C6.65601 6.8794 6.60053 6.96219 6.53061 7.03187L1.53061 12.0319C1.38972 12.1728 1.19862 12.2519 0.999362 12.2519C0.800105 12.2519 0.609009 12.1728 0.468112 12.0319C0.327216 11.891 0.248062 11.6999 0.248062 11.5006C0.248062 11.3014 0.327216 11.1103 0.468112 10.9694L4.93749 6.5L0.467488 2.03062C0.326592 1.88973 0.247437 1.69863 0.247437 1.49937C0.247437 1.30011 0.326592 1.10902 0.467488 0.968122C0.608384 0.827227 0.799481 0.74807 0.998738 0.74807C1.198 0.74807 1.38909 0.827227 1.52999 0.968122L1.53061 0.969372Z" fill="black" fill-opacity="0.6"/>
</svg>
