<svg width="26" height="26" viewBox="0 0 26 26" fill="none" xmlns="http://www.w3.org/2000/svg">
<path d="M8.79726 25.9501H4.01142C1.63034 25.9501 0.481262 24.8484 0.481262 22.5739V3.85699C0.481262 1.58253 1.64219 0.480835 4.01142 0.480835H8.79726C11.1783 0.480835 12.3274 1.58253 12.3274 3.85699V22.5739C12.3274 24.8484 11.1665 25.9501 8.79726 25.9501ZM4.01142 2.25776C2.50695 2.25776 2.25819 2.66053 2.25819 3.85699V22.5739C2.25819 23.7704 2.50695 24.1731 4.01142 24.1731H8.79726C10.3017 24.1731 10.5505 23.7704 10.5505 22.5739V3.85699C10.5505 2.66053 10.3017 2.25776 8.79726 2.25776H4.01142Z" fill="#5832E6"/>
<path d="M22.4197 15.2885H17.6339C15.2528 15.2885 14.1037 14.1868 14.1037 11.9124V3.85699C14.1037 1.58253 15.2646 0.480835 17.6339 0.480835H22.4197C24.8008 0.480835 25.9499 1.58253 25.9499 3.85699V11.9124C25.9499 14.1868 24.7889 15.2885 22.4197 15.2885ZM17.6339 2.25776C16.1294 2.25776 15.8806 2.66053 15.8806 3.85699V11.9124C15.8806 13.1088 16.1294 13.5116 17.6339 13.5116H22.4197C23.9242 13.5116 24.1729 13.1088 24.1729 11.9124V3.85699C24.1729 2.66053 23.9242 2.25776 22.4197 2.25776H17.6339Z" fill="#5832E6"/>
<path d="M22.4197 25.9496H17.6339C15.2528 25.9496 14.1037 24.8479 14.1037 22.5734V20.4411C14.1037 18.1666 15.2646 17.0649 17.6339 17.0649H22.4197C24.8008 17.0649 25.9499 18.1666 25.9499 20.4411V22.5734C25.9499 24.8479 24.7889 25.9496 22.4197 25.9496ZM17.6339 18.8419C16.1294 18.8419 15.8806 19.2446 15.8806 20.4411V22.5734C15.8806 23.7699 16.1294 24.1726 17.6339 24.1726H22.4197C23.9242 24.1726 24.1729 23.7699 24.1729 22.5734V20.4411C24.1729 19.2446 23.9242 18.8419 22.4197 18.8419H17.6339Z" fill="#5832E6"/>
</svg>
