<svg width="13" height="27" viewBox="0 0 13 27" fill="none" xmlns="http://www.w3.org/2000/svg">
<path d="M6.3634 0.5C8.15831 0.5 9.6134 1.95509 9.6134 3.75C9.6134 5.54491 8.15831 7 6.3634 7C4.56848 7 3.1134 5.54491 3.1134 3.75C3.1134 1.95509 4.56848 0.5 6.3634 0.5ZM12.4207 18.4857L9.98324 8.73565C9.91732 8.47197 9.76515 8.2379 9.55092 8.07063C9.33669 7.90336 9.07269 7.8125 8.8009 7.8125H8.22402C7.07073 8.34281 5.70578 8.36571 4.50277 7.8125H3.9259C3.6541 7.8125 3.39011 7.90336 3.17588 8.07063C2.96165 8.2379 2.80948 8.47197 2.74356 8.73565L0.306059 18.4857C0.114004 19.2538 0.695348 20 1.4884 20H4.33215V25.2812C4.33215 25.9544 4.87779 26.5 5.5509 26.5H7.1759C7.849 26.5 8.39465 25.9544 8.39465 25.2812V20H11.2384C12.0301 20 12.6131 19.255 12.4207 18.4857Z" fill="#5832E6"/>
</svg>
