<svg width="27" height="27" viewBox="0 0 27 27" fill="none" xmlns="http://www.w3.org/2000/svg">
<path d="M11.216 12.4728H8.01389C7.25264 12.4728 6.63641 13.089 6.63641 13.8502V20.0369H11.216V12.4728V12.4728Z" stroke="#292D32" stroke-width="1.5" stroke-miterlimit="10" stroke-linecap="round" stroke-linejoin="round"/>
<path d="M14.4196 6.97485H12.5829C11.8217 6.97485 11.2054 7.59112 11.2054 8.35237V20.0249H15.785V8.35237C15.785 7.59112 15.1809 6.97485 14.4196 6.97485Z" stroke="#292D32" stroke-width="1.5" stroke-miterlimit="10" stroke-linecap="round" stroke-linejoin="round"/>
<path d="M18.9954 14.527H15.7933V20.025H20.3729V15.9045C20.3608 15.1432 19.7446 14.527 18.9954 14.527Z" stroke="#292D32" stroke-width="1.5" stroke-miterlimit="10" stroke-linecap="round" stroke-linejoin="round"/>
<path d="M9.87478 25.5832H17.1248C23.1664 25.5832 25.5831 23.1665 25.5831 17.1248V9.87484C25.5831 3.83317 23.1664 1.4165 17.1248 1.4165H9.87478C3.83311 1.4165 1.41644 3.83317 1.41644 9.87484V17.1248C1.41644 23.1665 3.83311 25.5832 9.87478 25.5832Z" stroke="#292D32" stroke-width="1.5" stroke-linecap="round" stroke-linejoin="round"/>
</svg>
