<svg width="29" height="33" viewBox="0 0 29 33" fill="none" xmlns="http://www.w3.org/2000/svg">
<path d="M27.0214 23.0396C28.6106 23.9628 29.1724 26.0305 27.9414 27.3951C26.3315 29.1799 24.3308 30.5908 22.078 31.5074C18.7907 32.8449 15.1525 33.0541 11.7335 32.1022C8.31451 31.1504 5.30797 29.0912 3.18501 26.2474C1.06206 23.4036 -0.0573331 19.936 0.00226065 16.3878C0.0618544 12.8396 1.29706 9.41151 3.51432 6.64062C5.73158 3.86972 8.80558 1.91266 12.2546 1.07611C15.7036 0.239569 19.3328 0.570817 22.5733 2.01795C24.794 3.00964 26.7462 4.48695 28.2953 6.32476C29.4798 7.72997 28.8488 9.77757 27.2296 10.6469C25.6106 11.5161 23.6199 10.8429 22.2424 9.6267C21.535 9.00219 20.7327 8.48383 19.8594 8.09385C17.9638 7.24734 15.841 7.05358 13.8234 7.54292C11.8059 8.03226 10.0078 9.17705 8.71078 10.7979C7.41379 12.4187 6.69125 14.424 6.65639 16.4995C6.62153 18.5751 7.27632 20.6035 8.51815 22.267C9.75998 23.9304 11.5187 25.135 13.5186 25.6918C15.5186 26.2486 17.6468 26.1262 19.5697 25.3438C20.4556 24.9833 21.2748 24.4922 22.0028 23.8918C23.4204 22.7226 25.4325 22.1166 27.0214 23.0396Z" fill="#5832E6"/>
<path d="M20.6834 19.3576C21.6556 19.9224 22.0009 21.1965 21.1935 21.9789C20.5157 22.6358 19.7141 23.1617 18.8282 23.5221C17.3085 24.1404 15.6266 24.2372 14.046 23.7971C12.4654 23.3571 11.0754 22.4051 10.094 21.0904C9.11257 19.7758 8.59508 18.1727 8.62263 16.5323C8.65018 14.892 9.22121 13.3072 10.2462 12.0262C11.2713 10.7452 12.6924 9.84049 14.2869 9.45376C15.8814 9.06703 17.5591 9.22016 19.0572 9.88917C19.9305 10.2792 20.714 10.8316 21.3693 11.5109C22.15 12.32 21.7621 13.5818 20.7715 14.1136C19.781 14.6454 18.5469 14.1843 17.5439 13.6764C17.4956 13.6519 17.4465 13.6286 17.3968 13.6064C16.7216 13.3048 15.9654 13.2358 15.2467 13.4101C14.528 13.5844 13.8874 13.9922 13.4254 14.5696C12.9634 15.147 12.706 15.8613 12.6936 16.6007C12.6812 17.3401 12.9144 18.0626 13.3568 18.6552C13.7992 19.2478 14.4257 19.6769 15.1381 19.8752C15.8505 20.0736 16.6086 20.03 17.2936 19.7513C17.344 19.7307 17.3938 19.7091 17.443 19.6862C18.4624 19.2123 19.7113 18.7929 20.6834 19.3576Z" fill="#16C098"/>
</svg>
