<svg width="11" height="25" viewBox="0 0 11 25" fill="none" xmlns="http://www.w3.org/2000/svg">
<path d="M5.49881 0.00231934C7.20447 0.00231934 8.58721 1.38505 8.58721 3.09072C8.58721 4.79638 7.20447 6.17911 5.49881 6.17911C3.79314 6.17911 2.41041 4.79638 2.41041 3.09072C2.41041 1.38505 3.79314 0.00231934 5.49881 0.00231934ZM7.81511 6.95121H7.26692C6.17097 7.45515 4.87389 7.47692 3.7307 6.95121H3.18251C1.90324 6.95121 0.866211 7.98824 0.866211 9.26751V15.8304C0.866211 16.47 1.38472 16.9885 2.02436 16.9885H2.79646V23.5514C2.79646 24.191 3.31497 24.7095 3.95461 24.7095H7.04301C7.68264 24.7095 8.20116 24.191 8.20116 23.5514V16.9885H8.97326C9.61289 16.9885 10.1314 16.47 10.1314 15.8304V9.26751C10.1314 7.98824 9.09438 6.95121 7.81511 6.95121Z" fill="#16C098"/>
</svg>
