<svg width="45" height="46" viewBox="0 0 45 46" fill="none" xmlns="http://www.w3.org/2000/svg">
<rect y="0.5" width="45" height="45" rx="15" fill="#EBEBEB" fill-opacity="0.4"/>
<path d="M18.75 31.75C18.75 32.8 18.9125 33.825 19.2125 34.775C14.4125 33.1125 10.7875 28.7 10.4125 23.5375C10.0375 18.05 13.2 12.925 18.3125 10.775C19.6375 10.225 20.3125 10.625 20.6 10.9125C20.875 11.1875 21.2625 11.85 20.7125 13.1125C20.15 14.4125 19.875 15.7875 19.875 17.2125C19.8875 19.7625 20.8875 22.125 22.5125 23.9375C20.225 25.7625 18.75 28.5875 18.75 31.75Z" fill="#292D32"/>
<path d="M34.0125 30.15C31.5375 33.5125 27.6125 35.4875 23.425 35.4875C23.225 35.4875 23.025 35.475 22.825 35.4625C21.575 35.4125 20.3625 35.175 19.2125 34.775C18.9125 33.825 18.75 32.8 18.75 31.75C18.75 28.5875 20.225 25.7625 22.5125 23.9375C24.35 26 26.9875 27.3375 29.9 27.4625C30.6875 27.5 31.475 27.4375 32.25 27.3C33.65 27.05 34.2125 27.575 34.4125 27.9125C34.625 28.25 34.85 28.9875 34.0125 30.15Z" fill="#3366FF"/>
</svg>
