<svg width="24" height="24" viewBox="0 0 24 24" fill="none" xmlns="http://www.w3.org/2000/svg">
<path d="M6.99992 14C6.99992 14.2652 7.10528 14.5196 7.29281 14.7071C7.48035 14.8946 7.7347 15 7.99992 15C8.26514 15 8.51949 14.8946 8.70703 14.7071C8.89456 14.5196 8.99992 14.2652 8.99992 14V8.414L10.2929 9.707C10.4815 9.88916 10.7341 9.98995 10.9963 9.98767C11.2585 9.9854 11.5093 9.88023 11.6947 9.69482C11.8801 9.50941 11.9853 9.2586 11.9876 8.9964C11.9899 8.7342 11.8891 8.4816 11.7069 8.293L8.70692 5.293C8.51939 5.10553 8.26508 5.00021 7.99992 5.00021C7.73475 5.00021 7.48045 5.10553 7.29292 5.293L4.29292 8.293C4.11076 8.4816 4.00997 8.7342 4.01224 8.9964C4.01452 9.2586 4.11969 9.50941 4.3051 9.69482C4.49051 9.88023 4.74132 9.9854 5.00352 9.98767C5.26571 9.98995 5.51832 9.88916 5.70692 9.707L6.99992 8.414V14ZM16.9999 10C16.9999 9.73478 16.8946 9.48043 16.707 9.29289C16.5195 9.10536 16.2651 9 15.9999 9C15.7347 9 15.4803 9.10536 15.2928 9.29289C15.1053 9.48043 14.9999 9.73478 14.9999 10V15.586L13.7069 14.293C13.5183 14.1108 13.2657 14.01 13.0035 14.0123C12.7413 14.0146 12.4905 14.1198 12.3051 14.3052C12.1197 14.4906 12.0145 14.7414 12.0122 15.0036C12.01 15.2658 12.1108 15.5184 12.2929 15.707L15.2929 18.707C15.4804 18.8945 15.7348 18.9998 15.9999 18.9998C16.2651 18.9998 16.5194 18.8945 16.7069 18.707L19.7069 15.707C19.8891 15.5184 19.9899 15.2658 19.9876 15.0036C19.9853 14.7414 19.8801 14.4906 19.6947 14.3052C19.5093 14.1198 19.2585 14.0146 18.9963 14.0123C18.7341 14.01 18.4815 14.1108 18.2929 14.293L16.9999 15.586V10Z" fill="#84919A"/>
</svg>
