<svg width="12" height="16" viewBox="0 0 12 16" fill="none" xmlns="http://www.w3.org/2000/svg">
<path d="M4.29289 0.292893C4.48043 0.105357 4.73478 0 5 0H7C7.26522 0 7.51957 0.105357 7.70711 0.292893C7.89464 0.48043 8 0.734784 8 1C8 1.26522 7.89464 1.51957 7.70711 1.70711C7.51957 1.89464 7.26522 2 7 2H5C4.73478 2 4.48043 1.89464 4.29289 1.70711C4.10536 1.51957 4 1.26522 4 1C4 0.734784 4.10536 0.48043 4.29289 0.292893Z" fill="#84919A"/>
<path fill-rule="evenodd" clip-rule="evenodd" d="M0.585786 1.58579C0.210713 1.96086 0 2.46957 0 3V14C0 14.5304 0.210713 15.0391 0.585786 15.4142C0.960859 15.7893 1.46957 16 2 16H10C10.5304 16 11.0391 15.7893 11.4142 15.4142C11.7893 15.0391 12 14.5304 12 14V3C12 2.46957 11.7893 1.96086 11.4142 1.58579C11.0391 1.21071 10.5304 1 10 1C10 1.79565 9.68393 2.55871 9.12132 3.12132C8.55871 3.68393 7.79565 4 7 4H5C4.20435 4 3.44129 3.68393 2.87868 3.12132C2.31607 2.55871 2 1.79565 2 1C1.46957 1 0.960859 1.21071 0.585786 1.58579ZM9.98767 8.0036C9.98995 8.2658 9.88916 8.5184 9.707 8.707L5.707 12.707C5.51947 12.8945 5.26516 12.9998 5 12.9998C4.73484 12.9998 4.48053 12.8945 4.293 12.707L2.293 10.707C2.11084 10.5184 2.01005 10.2658 2.01233 10.0036C2.0146 9.7414 2.11977 9.49059 2.30518 9.30518C2.49059 9.11977 2.7414 9.0146 3.0036 9.01233C3.2658 9.01005 3.5184 9.11084 3.707 9.293L5 10.586L8.293 7.293C8.4816 7.11084 8.7342 7.01005 8.9964 7.01233C9.2586 7.0146 9.50941 7.11977 9.69482 7.30518C9.88023 7.49059 9.9854 7.7414 9.98767 8.0036Z" fill="#84919A"/>
</svg>
