<svg width="14" height="16" viewBox="0 0 14 16" fill="none" xmlns="http://www.w3.org/2000/svg">
<path fill-rule="evenodd" clip-rule="evenodd" d="M0.292786 7.70703C0.105315 7.5195 0 7.26519 0 7.00003C0 6.73487 0.105315 6.48056 0.292786 6.29303L6.29279 0.293031C6.48031 0.105559 6.73462 0.000244141 6.99979 0.000244141C7.26495 0.000244141 7.51926 0.105559 7.70679 0.293031L13.7068 6.29303C13.8889 6.48163 13.9897 6.73423 13.9875 6.99643C13.9852 7.25863 13.88 7.50944 13.6946 7.69485C13.5092 7.88026 13.2584 7.98543 12.9962 7.9877C12.734 7.98998 12.4814 7.88919 12.2928 7.70703L7.99979 3.41403V15C7.99979 15.2652 7.89443 15.5196 7.70689 15.7071C7.51936 15.8947 7.265 16 6.99979 16C6.73457 16 6.48022 15.8947 6.29268 15.7071C6.10514 15.5196 5.99979 15.2652 5.99979 15V3.41403L1.70679 7.70703C1.51926 7.8945 1.26495 7.99982 0.999786 7.99982C0.734622 7.99982 0.480314 7.8945 0.292786 7.70703Z" fill="#5B6871"/>
</svg>
