<svg width="104" height="24" viewBox="0 0 104 24" fill="none" xmlns="http://www.w3.org/2000/svg">
<g clip-path="url(#clip0_1_1189)">
<path d="M4.58579 5.58579C4.21071 5.96086 4 6.46957 4 7V11C4 11.5304 4.21071 12.0391 4.58579 12.4142C4.96086 12.7893 5.46957 13 6 13H8V16L11 13H13C13.5304 13 14.0391 12.7893 14.4142 12.4142C14.7893 12.0391 15 11.5304 15 11V7C15 6.46957 14.7893 5.96086 14.4142 5.58579C14.0391 5.21071 13.5304 5 13 5H6C5.46957 5 4.96086 5.21071 4.58579 5.58579Z" fill="#B0BABF"/>
<path d="M17 11V9H18C18.5304 9 19.0392 9.21071 19.4142 9.58579C19.7893 9.96086 20 10.4696 20 11V15C20 15.5304 19.7893 16.0391 19.4142 16.4142C19.0392 16.7893 18.5304 17 18 17H16V20L13 17H11C10.661 17 10.342 16.916 10.062 16.767L11.828 15H13C14.0609 15 15.0783 14.5786 15.8284 13.8284C16.5786 13.0783 17 12.0609 17 11Z" fill="#B0BABF"/>
<path d="M33.233 17V6.81818H39.3381V7.91193H34.4659V11.3523H38.8807V12.446H34.4659V17H33.233ZM43.8478 17.1591C43.112 17.1591 42.4773 16.9967 41.9437 16.6719C41.4134 16.3438 41.0041 15.8864 40.7157 15.2997C40.4307 14.7098 40.2882 14.0237 40.2882 13.2415C40.2882 12.4593 40.4307 11.7699 40.7157 11.1733C41.0041 10.5734 41.4051 10.1061 41.9188 9.77131C42.4359 9.43324 43.0391 9.2642 43.7285 9.2642C44.1262 9.2642 44.519 9.33049 44.9068 9.46307C45.2946 9.59564 45.6475 9.81108 45.9657 10.1094C46.2839 10.4044 46.5374 10.7955 46.7264 11.2827C46.9153 11.7699 47.0097 12.3698 47.0097 13.0824V13.5795H41.1234V12.5653H45.8166C45.8166 12.1345 45.7304 11.75 45.558 11.4119C45.389 11.0739 45.1471 10.8071 44.8322 10.6115C44.5206 10.416 44.1527 10.3182 43.7285 10.3182C43.2612 10.3182 42.8568 10.4342 42.5154 10.6662C42.1774 10.8949 41.9172 11.1932 41.7349 11.5611C41.5526 11.929 41.4615 12.3234 41.4615 12.7443V13.4205C41.4615 13.9972 41.5609 14.486 41.7597 14.8871C41.9619 15.2848 42.242 15.5881 42.5999 15.7969C42.9579 16.0024 43.3739 16.1051 43.8478 16.1051C44.1561 16.1051 44.4345 16.062 44.683 15.9759C44.9349 15.8864 45.152 15.7538 45.3343 15.5781C45.5166 15.3991 45.6575 15.1771 45.7569 14.9119L46.8904 15.2301C46.7711 15.6146 46.5706 15.9527 46.2889 16.2443C46.0071 16.5327 45.6591 16.758 45.2448 16.9205C44.8305 17.0795 44.3649 17.1591 43.8478 17.1591ZM51.9123 17.1591C51.1765 17.1591 50.5418 16.9967 50.0081 16.6719C49.4778 16.3438 49.0685 15.8864 48.7802 15.2997C48.4951 14.7098 48.3526 14.0237 48.3526 13.2415C48.3526 12.4593 48.4951 11.7699 48.7802 11.1733C49.0685 10.5734 49.4695 10.1061 49.9833 9.77131C50.5003 9.43324 51.1035 9.2642 51.7929 9.2642C52.1907 9.2642 52.5834 9.33049 52.9712 9.46307C53.359 9.59564 53.712 9.81108 54.0302 10.1094C54.3483 10.4044 54.6019 10.7955 54.7908 11.2827C54.9797 11.7699 55.0742 12.3698 55.0742 13.0824V13.5795H49.1878V12.5653H53.881C53.881 12.1345 53.7948 11.75 53.6225 11.4119C53.4534 11.0739 53.2115 10.8071 52.8966 10.6115C52.5851 10.416 52.2172 10.3182 51.7929 10.3182C51.3256 10.3182 50.9213 10.4342 50.5799 10.6662C50.2418 10.8949 49.9816 11.1932 49.7993 11.5611C49.617 11.929 49.5259 12.3234 49.5259 12.7443V13.4205C49.5259 13.9972 49.6253 14.486 49.8242 14.8871C50.0264 15.2848 50.3064 15.5881 50.6644 15.7969C51.0223 16.0024 51.4383 16.1051 51.9123 16.1051C52.2205 16.1051 52.4989 16.062 52.7475 15.9759C52.9994 15.8864 53.2165 15.7538 53.3988 15.5781C53.5811 15.3991 53.7219 15.1771 53.8213 14.9119L54.9549 15.2301C54.8356 15.6146 54.635 15.9527 54.3533 16.2443C54.0716 16.5327 53.7236 16.758 53.3093 16.9205C52.895 17.0795 52.4293 17.1591 51.9123 17.1591ZM59.6585 17.1591C59.0221 17.1591 58.4604 16.9983 57.9731 16.6768C57.4859 16.352 57.1048 15.8946 56.8297 15.3047C56.5546 14.7114 56.417 14.0104 56.417 13.2017C56.417 12.3996 56.5546 11.7036 56.8297 11.1136C57.1048 10.5237 57.4876 10.0679 57.9781 9.74645C58.4686 9.42495 59.0354 9.2642 59.6784 9.2642C60.1756 9.2642 60.5683 9.34706 60.8567 9.51278C61.1483 9.67519 61.3704 9.8608 61.5229 10.0696C61.6786 10.2751 61.7996 10.4441 61.8858 10.5767H61.9852V6.81818H63.1585V17H62.025V15.8267H61.8858C61.7996 15.9659 61.677 16.1416 61.5179 16.3537C61.3588 16.5625 61.1318 16.7498 60.8368 16.9155C60.5418 17.0779 60.149 17.1591 59.6585 17.1591ZM59.8176 16.1051C60.2882 16.1051 60.686 15.9825 61.0108 15.7372C61.3356 15.4886 61.5825 15.1456 61.7516 14.7081C61.9206 14.2673 62.0051 13.7585 62.0051 13.1818C62.0051 12.6117 61.9222 12.1129 61.7565 11.6854C61.5908 11.2545 61.3455 10.9197 61.0207 10.6811C60.6959 10.4392 60.2949 10.3182 59.8176 10.3182C59.3204 10.3182 58.9061 10.4458 58.5747 10.701C58.2466 10.9529 57.9997 11.2959 57.8339 11.7301C57.6715 12.161 57.5903 12.6449 57.5903 13.1818C57.5903 13.7254 57.6732 14.2192 57.8389 14.6634C58.0079 15.1042 58.2565 15.4555 58.5846 15.7173C58.9161 15.9759 59.3271 16.1051 59.8176 16.1051ZM65.5454 17V6.81818H66.7187V10.5767H66.8181C66.9043 10.4441 67.0236 10.2751 67.1761 10.0696C67.3319 9.8608 67.5539 9.67519 67.8423 9.51278C68.1339 9.34706 68.5283 9.2642 69.0255 9.2642C69.6685 9.2642 70.2353 9.42495 70.7258 9.74645C71.2163 10.0679 71.5991 10.5237 71.8742 11.1136C72.1493 11.7036 72.2869 12.3996 72.2869 13.2017C72.2869 14.0104 72.1493 14.7114 71.8742 15.3047C71.5991 15.8946 71.218 16.352 70.7308 16.6768C70.2435 16.9983 69.6818 17.1591 69.0454 17.1591C68.5549 17.1591 68.1621 17.0779 67.8671 16.9155C67.5721 16.7498 67.3451 16.5625 67.186 16.3537C67.0269 16.1416 66.9043 15.9659 66.8181 15.8267H66.6789V17H65.5454ZM66.6988 13.1818C66.6988 13.7585 66.7833 14.2673 66.9524 14.7081C67.1214 15.1456 67.3683 15.4886 67.6931 15.7372C68.0179 15.9825 68.4157 16.1051 68.8863 16.1051C69.3768 16.1051 69.7862 15.9759 70.1143 15.7173C70.4457 15.4555 70.6943 15.1042 70.86 14.6634C71.0291 14.2192 71.1136 13.7254 71.1136 13.1818C71.1136 12.6449 71.0307 12.161 70.865 11.7301C70.7026 11.2959 70.4557 10.9529 70.1242 10.701C69.7961 10.4458 69.3835 10.3182 68.8863 10.3182C68.409 10.3182 68.008 10.4392 67.6832 10.6811C67.3584 10.9197 67.1131 11.2545 66.9474 11.6854C66.7817 12.1129 66.6988 12.6117 66.6988 13.1818ZM76.2448 17.179C75.7609 17.179 75.3217 17.0878 74.9273 16.9055C74.5329 16.7199 74.2197 16.4531 73.9877 16.1051C73.7557 15.7538 73.6397 15.3295 73.6397 14.8324C73.6397 14.3949 73.7258 14.0402 73.8982 13.7685C74.0705 13.4934 74.3009 13.2779 74.5892 13.1222C74.8776 12.9664 75.1958 12.8504 75.5438 12.7741C75.8951 12.6946 76.2481 12.6316 76.6027 12.5852C77.0667 12.5256 77.4429 12.4808 77.7313 12.451C78.0229 12.4179 78.2351 12.3632 78.3676 12.2869C78.5035 12.2107 78.5715 12.0781 78.5715 11.8892V11.8494C78.5715 11.3589 78.4372 10.9777 78.1688 10.706C77.9036 10.4342 77.5009 10.2983 76.9607 10.2983C76.4006 10.2983 75.9614 10.4209 75.6432 10.6662C75.325 10.9115 75.1013 11.1733 74.972 11.4517L73.8584 11.054C74.0573 10.59 74.3224 10.2287 74.6539 9.97017C74.9886 9.70833 75.3532 9.52604 75.7476 9.4233C76.1453 9.31723 76.5364 9.2642 76.9209 9.2642C77.1662 9.2642 77.4479 9.29403 77.7661 9.35369C78.0876 9.41004 78.3975 9.5277 78.6958 9.70668C78.9974 9.88565 79.2476 10.1558 79.4465 10.517C79.6453 10.8783 79.7448 11.3622 79.7448 11.9688V17H78.5715V15.9659H78.5118C78.4323 16.1316 78.2997 16.3089 78.1141 16.4979C77.9285 16.6868 77.6816 16.8475 77.3733 16.9801C77.0651 17.1127 76.6889 17.179 76.2448 17.179ZM76.4238 16.125C76.8878 16.125 77.2789 16.0339 77.597 15.8516C77.9185 15.6693 78.1605 15.4339 78.3229 15.1456C78.4886 14.8572 78.5715 14.554 78.5715 14.2358V13.1619C78.5218 13.2216 78.4124 13.2763 78.2434 13.326C78.0776 13.3724 77.8854 13.4138 77.6666 13.4503C77.4512 13.4834 77.2408 13.5133 77.0353 13.5398C76.8331 13.563 76.669 13.5829 76.5431 13.5994C76.2381 13.6392 75.9531 13.7038 75.688 13.7933C75.4261 13.8795 75.214 14.0104 75.0516 14.1861C74.8925 14.3584 74.813 14.5937 74.813 14.892C74.813 15.2997 74.9638 15.608 75.2654 15.8168C75.5703 16.0223 75.9564 16.125 76.4238 16.125ZM84.9046 17.1591C84.1886 17.1591 83.5722 16.9901 83.0551 16.652C82.5381 16.3139 82.1404 15.8482 81.8619 15.255C81.5835 14.6617 81.4443 13.9839 81.4443 13.2216C81.4443 12.446 81.5868 11.7616 81.8719 11.1683C82.1602 10.5717 82.5613 10.1061 83.075 9.77131C83.5921 9.43324 84.1953 9.2642 84.8847 9.2642C85.4216 9.2642 85.9055 9.36364 86.3364 9.5625C86.7672 9.76136 87.1202 10.0398 87.3953 10.3977C87.6704 10.7557 87.8411 11.1733 87.9074 11.6506H86.7341C86.6446 11.3026 86.4458 10.9943 86.1375 10.7259C85.8326 10.4541 85.4216 10.3182 84.9046 10.3182C84.4472 10.3182 84.0461 10.4375 83.7014 10.6761C83.36 10.9115 83.0932 11.2446 82.901 11.6754C82.7121 12.103 82.6176 12.6051 82.6176 13.1818C82.6176 13.7718 82.7104 14.2855 82.896 14.723C83.085 15.1605 83.3501 15.5002 83.6915 15.7422C84.0362 15.9841 84.4405 16.1051 84.9046 16.1051C85.2095 16.1051 85.4862 16.0521 85.7348 15.946C85.9834 15.84 86.1939 15.6875 86.3662 15.4886C86.5386 15.2898 86.6612 15.0511 86.7341 14.7727H87.9074C87.8411 15.2235 87.677 15.6295 87.4152 15.9908C87.1567 16.3487 86.8136 16.6338 86.3861 16.8459C85.9618 17.0547 85.468 17.1591 84.9046 17.1591ZM90.6323 14.2159L90.6125 12.7642H90.8511L94.192 9.36364H95.6437L92.0841 12.9631H91.9846L90.6323 14.2159ZM89.5386 17V6.81818H90.7119V17H89.5386ZM94.3909 17L91.4079 13.2216L92.2431 12.4062L95.8823 17H94.3909ZM98.6011 14.1364V14.0767C98.6077 13.4437 98.674 12.9399 98.7999 12.5653C98.9259 12.1908 99.1049 11.8875 99.3369 11.6555C99.5689 11.4235 99.8473 11.2098 100.172 11.0142C100.368 10.8949 100.543 10.754 100.699 10.5916C100.855 10.4259 100.978 10.2353 101.067 10.0199C101.16 9.80445 101.206 9.56581 101.206 9.30398C101.206 8.97917 101.13 8.69744 100.978 8.45881C100.825 8.22017 100.621 8.03622 100.366 7.90696C100.111 7.7777 99.8274 7.71307 99.5159 7.71307C99.2441 7.71307 98.9822 7.76941 98.7303 7.8821C98.4784 7.99479 98.268 8.17211 98.099 8.41406C97.9299 8.65601 97.8321 8.97254 97.8056 9.36364H96.5528C96.5793 8.80019 96.7251 8.31794 96.9903 7.9169C97.2588 7.51586 97.6117 7.20928 98.0492 6.99716C98.49 6.78504 98.9789 6.67898 99.5159 6.67898C100.099 6.67898 100.606 6.79498 101.037 7.02699C101.471 7.259 101.806 7.57718 102.041 7.98153C102.28 8.38589 102.399 8.84659 102.399 9.36364C102.399 9.72822 102.343 10.058 102.23 10.353C102.121 10.648 101.962 10.9115 101.753 11.1435C101.548 11.3755 101.299 11.581 101.007 11.7599C100.716 11.9422 100.482 12.1345 100.306 12.3366C100.131 12.5355 100.003 12.7725 99.9235 13.0476C99.844 13.3227 99.8009 13.6657 99.7943 14.0767V14.1364H98.6011ZM99.2374 17.0795C98.9922 17.0795 98.7817 16.9917 98.6061 16.8161C98.4304 16.6404 98.3426 16.4299 98.3426 16.1847C98.3426 15.9394 98.4304 15.7289 98.6061 15.5533C98.7817 15.3776 98.9922 15.2898 99.2374 15.2898C99.4827 15.2898 99.6932 15.3776 99.8688 15.5533C100.045 15.7289 100.132 15.9394 100.132 16.1847C100.132 16.3471 100.091 16.4962 100.008 16.6321C99.9285 16.768 99.8208 16.8774 99.6849 16.9602C99.5523 17.0398 99.4032 17.0795 99.2374 17.0795Z" fill="#5B6871"/>
</g>
<defs>
<clipPath id="clip0_1_1189">
<rect width="104" height="24" fill="white"/>
</clipPath>
</defs>
</svg>
