<svg width="16" height="14" viewBox="0 0 16 14" fill="none" xmlns="http://www.w3.org/2000/svg">
<path fill-rule="evenodd" clip-rule="evenodd" d="M0.585786 0.585786C0.210713 0.960859 0 1.46957 0 2V12C0 12.5304 0.210713 13.0391 0.585786 13.4142C0.960859 13.7893 1.46957 14 2 14H14C13.4696 14 12.9609 13.7893 12.5858 13.4142C12.2107 13.0391 12 12.5304 12 12V2C12 1.46957 11.7893 0.960859 11.4142 0.585786C11.0391 0.210713 10.5304 0 10 0H2C1.46957 0 0.960859 0.210713 0.585786 0.585786ZM9 3H3V7H9V3ZM3 9H9V11H3V9Z" fill="#84919A"/>
<path d="M14 4H13V11.5C13 11.8978 13.158 12.2794 13.4393 12.5607C13.7206 12.842 14.1022 13 14.5 13C14.8978 13 15.2794 12.842 15.5607 12.5607C15.842 12.2794 16 11.8978 16 11.5V6C16 5.46957 15.7893 4.96086 15.4142 4.58579C15.0391 4.21071 14.5304 4 14 4Z" fill="#84919A"/>
</svg>
