<svg width="19" height="19" viewBox="0 0 19 19" fill="none" xmlns="http://www.w3.org/2000/svg">
<path d="M9.50002 17.1C7.48437 17.1 5.55128 16.2993 4.126 14.874C2.70072 13.4488 1.9 11.5157 1.9 9.50002C1.9 7.48437 2.70072 5.55128 4.126 4.126C5.55128 2.70072 7.48437 1.9 9.50002 1.9C11.5157 1.9 13.4488 2.70072 14.874 4.126C16.2993 5.55128 17.1 7.48437 17.1 9.50002C17.1 11.5157 16.2993 13.4488 14.874 14.874C13.4488 16.2993 11.5157 17.1 9.50002 17.1ZM9.50002 0C8.25246 0 7.01712 0.245725 5.86452 0.723146C4.71192 1.20057 3.66465 1.90033 2.78249 2.78249C1.00089 4.56409 0 6.98046 0 9.50002C0 12.0196 1.00089 14.436 2.78249 16.2176C3.66465 17.0997 4.71192 17.7995 5.86452 18.2769C7.01712 18.7543 8.25246 19 9.50002 19C12.0196 19 14.436 17.9992 16.2176 16.2176C17.9992 14.436 19 12.0196 19 9.50002C19 8.25246 18.7543 7.01712 18.2769 5.86452C17.7995 4.71192 17.0997 3.66465 16.2176 2.78249C15.3354 1.90033 14.2881 1.20057 13.1355 0.723146C11.9829 0.245725 10.7476 0 9.50002 0Z" fill="black"/>
</svg>
