<svg width="23" height="23" viewBox="0 0 23 23" fill="none" xmlns="http://www.w3.org/2000/svg">
<path d="M11.8833 19.5502C9.85 19.5502 7.89996 18.7425 6.46219 17.3047C5.02442 15.8669 4.21668 13.9169 4.21668 11.8836C4.21668 9.85025 5.02442 7.90022 6.46219 6.46244C7.89996 5.02467 9.85 4.21694 11.8833 4.21694C13.9166 4.21694 15.8667 5.02467 17.3044 6.46244C18.7422 7.90022 19.5499 9.85025 19.5499 11.8836C19.5499 13.9169 18.7422 15.8669 17.3044 17.3047C15.8667 18.7425 13.9166 19.5502 11.8833 19.5502ZM11.8833 2.30028C10.6248 2.30028 9.37865 2.54816 8.21595 3.02976C7.05325 3.51137 5.9968 4.21727 5.10691 5.10716C3.30969 6.90438 2.30003 9.34192 2.30003 11.8836C2.30003 14.4252 3.30969 16.8628 5.10691 18.66C5.9968 19.5499 7.05325 20.2558 8.21595 20.7374C9.37865 21.219 10.6248 21.4669 11.8833 21.4669C14.425 21.4669 16.8625 20.4572 18.6597 18.66C20.4569 16.8628 21.4666 14.4252 21.4666 11.8836C21.4666 10.6251 21.2187 9.3789 20.7371 8.2162C20.2555 7.05351 19.5496 5.99705 18.6597 5.10716C17.7698 4.21727 16.7134 3.51137 15.5507 3.02976C14.388 2.54816 13.1418 2.30028 11.8833 2.30028Z" fill="black"/>
</svg>
