<svg width="23" height="23" viewBox="0 0 23 23" fill="none" xmlns="http://www.w3.org/2000/svg">
<path d="M11.4999 20.3559C6.20706 20.3559 1.91661 16.2134 1.91661 11.103C1.91661 5.99266 6.20706 1.85015 11.4999 1.85015C16.7928 1.85015 21.0833 5.99266 21.0833 11.103C21.0833 16.2134 16.7928 20.3559 11.4999 20.3559ZM11.4999 18.5053C13.5333 18.5053 15.4833 17.7254 16.9211 16.3372C18.3589 14.949 19.1666 13.0662 19.1666 11.103C19.1666 9.13981 18.3589 7.257 16.9211 5.8688C15.4833 4.48061 13.5333 3.70072 11.4999 3.70072C9.46661 3.70072 7.51656 4.48061 6.07878 5.8688C4.64101 7.257 3.83327 9.13981 3.83327 11.103C3.83327 13.0662 4.64101 14.949 6.07878 16.3372C7.51656 17.7254 9.46661 18.5053 11.4999 18.5053ZM10.5445 14.8042L6.47827 10.8782L7.83335 9.56982L10.5445 12.1875L15.9658 6.95311L17.3208 8.26146L10.5445 14.8042Z" fill="#757575"/>
</svg>
