<svg width="26" height="26" viewBox="0 0 26 26" fill="none" xmlns="http://www.w3.org/2000/svg">
<path d="M11.9164 4.33333H4.33317C3.75855 4.33333 3.20746 4.5616 2.80113 4.96792C2.39481 5.37425 2.16654 5.92534 2.16654 6.49996V21.6664C2.16654 22.241 2.39481 22.7921 2.80113 23.1984C3.20746 23.6047 3.75855 23.833 4.33317 23.833H19.4996C20.0742 23.833 20.6253 23.6047 21.0316 23.1984C21.4379 22.7921 21.6662 22.241 21.6662 21.6664V14.0832" stroke="black" stroke-width="1.07615" stroke-linecap="round" stroke-linejoin="round"/>
<path d="M20.0412 2.70802C20.4722 2.27705 21.0567 2.03494 21.6662 2.03494C22.2757 2.03494 22.8602 2.27705 23.2912 2.70802C23.7221 3.13899 23.9642 3.72351 23.9642 4.33299C23.9642 4.94247 23.7221 5.52699 23.2912 5.95796L12.9997 16.2494L8.66642 17.3328L9.74973 12.9995L20.0412 2.70802Z" stroke="black" stroke-width="1.07615" stroke-linecap="round" stroke-linejoin="round"/>
</svg>
