<svg width="157" height="36" viewBox="0 0 157 36" fill="none" xmlns="http://www.w3.org/2000/svg">
<g clip-path="url(#clip0_43_2920)">
<path d="M141.794 11.2934L141.502 11.3855C140.369 9.04204 138.749 7.17651 136.644 5.78893C134.571 4.40133 131.963 3.70752 128.822 3.70752C127.073 3.70752 125.405 4.06211 123.818 4.77129C122.23 5.44972 120.838 6.42104 119.639 7.68525C118.473 8.91865 117.534 10.4142 116.821 12.1718C116.109 13.9294 115.753 15.872 115.753 17.9997C115.753 20.1273 116.109 22.0699 116.821 23.8275C117.534 25.5851 118.473 27.096 119.639 28.3603C120.838 29.5937 122.23 30.5496 123.818 31.228C125.405 31.9063 127.073 32.2455 128.822 32.2455C131.931 32.2455 134.457 31.783 136.401 30.8579C138.377 29.9021 140.045 28.4528 141.405 26.5102L141.697 26.6024L141.6 29.5626C140.855 30.3026 139.996 30.9656 139.025 31.5514C138.053 32.1065 137 32.5844 135.867 32.9853C134.766 33.3553 133.616 33.6328 132.417 33.8178C131.219 34.0339 130.021 34.1419 128.822 34.1419C126.328 34.1419 123.948 33.7564 121.68 32.9855C119.413 32.2146 117.421 31.1354 115.704 29.7478C113.988 28.3294 112.627 26.6335 111.623 24.66C110.619 22.6558 110.117 20.4356 110.117 17.9996C110.117 15.5636 110.619 13.3589 111.623 11.3855C112.627 9.38116 113.988 7.6698 115.704 6.25142C117.421 4.83298 119.413 3.75374 121.68 3.01369C123.948 2.24279 126.328 1.85734 128.822 1.85734C130.021 1.85734 131.219 1.94984 132.417 2.13486C133.616 2.31987 134.766 2.61281 135.867 3.01369C137 3.38372 138.053 3.86167 139.025 4.44757C139.996 5.0026 140.855 5.65013 141.6 6.39017L141.794 11.2934ZM34.7334 20.1277C34.3774 20.2817 34.0373 20.4822 33.7132 20.7293C33.3891 20.9758 33.2271 21.315 33.2271 21.7469V27.4359C31.6724 29.5636 29.6804 31.2133 27.2512 32.385C24.822 33.5568 22.1337 34.1427 19.1862 34.1427C16.6923 34.1427 14.3117 33.7572 12.0444 32.9863C9.77718 32.2154 7.78523 31.1362 6.06858 29.7486C4.35195 28.3302 2.99159 26.6343 1.9875 24.6608C0.983462 22.6566 0.481445 20.4364 0.481445 18.0004C0.481445 15.5644 0.983462 13.3597 1.9875 11.3863C2.99159 9.38192 4.35195 7.67056 6.06858 6.25218C7.78523 4.83374 9.77718 3.75451 12.0444 3.01449C14.3117 2.24356 16.6923 1.8581 19.1862 1.8581C20.3847 1.8581 21.5831 1.9506 22.7815 2.13561C23.9799 2.32062 25.1297 2.61357 26.231 3.01445C27.3646 3.38447 28.4172 3.86243 29.3889 4.44832C30.3606 5.00335 31.2189 5.65089 31.9639 6.39093L32.1585 11.2937L31.867 11.3859C30.7334 9.04238 29.114 7.17683 27.0087 5.78925C24.9357 4.40165 22.3284 3.70784 19.1866 3.70784C17.4376 3.70784 15.7696 4.06245 14.1825 4.77165C12.5954 5.45005 11.2027 6.42136 10.0042 7.68557C8.8382 8.919 7.89893 10.4145 7.18642 12.1721C6.4738 13.9297 6.1175 15.8724 6.1175 18C6.1175 20.0968 6.45759 22.024 7.13779 23.7816C7.85038 25.5392 8.78968 27.0501 9.95569 28.3144C11.1541 29.5478 12.5468 30.5191 14.1339 31.2283C15.721 31.9067 17.4052 32.2459 19.1866 32.2459C22.5551 32.2459 25.4378 31.6292 27.8346 30.3958V21.7465C27.8346 21.315 27.6565 20.9758 27.3005 20.7289C26.9764 20.4824 26.6525 20.2819 26.3287 20.1273L26.3731 19.8963C26.5349 19.9245 26.8264 19.9553 27.2477 19.9885C27.6689 20.0167 28.1062 20.0475 28.5595 20.0807H32.7379C33.1266 20.0525 33.4991 20.0218 33.8554 19.9885C34.2115 19.9603 34.4867 19.9296 34.681 19.8963L34.7334 20.1277ZM69.9234 2.82908C69.5993 2.98307 69.2754 3.18359 68.9517 3.43065C68.6277 3.67714 68.4496 4.13967 68.4176 4.81822C68.388 5.55827 68.3557 6.49875 68.3208 7.63967C68.3208 8.74976 68.306 10.014 68.2763 11.4323C68.2763 12.8508 68.2615 14.3926 68.2319 16.0577V21.2381C68.2023 23.2423 67.9431 24.9537 67.4543 26.3721C66.9684 27.7905 66.3206 28.9776 65.5109 29.9335C64.7336 30.8895 63.8591 31.6449 62.8874 32.2C61.9481 32.755 61.0088 33.1713 60.0695 33.4488C59.1626 33.7573 58.3043 33.9423 57.4946 34.0038C56.6848 34.0963 56.0532 34.1426 55.5998 34.1426C53.7536 34.1426 51.9722 33.9113 50.2555 33.4488C48.5389 33.0173 47.0328 32.3081 45.7372 31.3211C44.4417 30.3344 43.4052 29.0547 42.6279 27.4822C41.8505 25.9096 41.4618 23.9978 41.4618 21.7468V16.5203V11.7099C41.4618 10.2298 41.447 8.90384 41.4174 7.73214C41.4174 6.52954 41.4026 5.55823 41.373 4.81818C41.3434 4.13979 41.1653 3.67726 40.8389 3.43061C40.5148 3.18411 40.1909 2.98359 39.8672 2.82904L39.9116 2.59806C40.0734 2.62626 40.3326 2.65699 40.6893 2.69025C41.078 2.71845 41.4666 2.74918 41.8553 2.78243C42.2766 2.78243 42.6814 2.79653 43.0699 2.82473H44.8189C45.2076 2.79653 45.6125 2.78243 46.0335 2.78243C46.4548 2.75423 46.8434 2.7235 47.1995 2.69025C47.5882 2.66204 47.8634 2.63132 48.0251 2.59806L48.0696 2.82904C47.7135 2.98303 47.3734 3.18355 47.0493 3.43061C46.7578 3.6771 46.5958 4.13963 46.5632 4.81818C46.5336 5.55823 46.5013 6.52954 46.4664 7.73214V21.7468C46.4664 25.1078 47.2923 27.59 48.9441 29.1935C50.596 30.7969 53.0414 31.5986 56.2803 31.5986C57.2196 31.5986 58.2884 31.4906 59.4869 31.2746C60.6853 31.0281 61.8027 30.5347 62.8392 29.7945C63.908 29.0544 64.7987 28.0061 65.5113 26.6493C66.2562 25.2925 66.6287 23.4887 66.6287 21.2377C66.6287 18.8017 66.6139 16.7204 66.5843 14.9936C66.5843 13.236 66.5695 11.7405 66.5399 10.5071C66.5399 9.24282 66.525 8.16358 66.4954 7.26933C66.4658 6.37514 66.4335 5.55801 66.3985 4.81795C66.3689 4.13955 66.1908 3.67702 65.8644 3.43037C65.5403 3.18387 65.2164 2.98334 64.8927 2.82876L64.9372 2.59782C65.2933 2.65928 65.6981 2.72104 66.1517 2.78311C66.605 2.81131 67.0261 2.82541 67.415 2.82541C67.771 2.82541 68.1759 2.81131 68.6295 2.78311C69.1153 2.72165 69.5364 2.65989 69.8928 2.59782L69.9234 2.82908ZM105.178 11.2934L104.886 11.3855C103.752 9.04204 102.133 7.17651 100.028 5.78893C97.9547 4.40133 95.3474 3.70752 92.2057 3.70752C90.4566 3.70752 88.7885 4.06211 87.2014 4.77129C85.6143 5.44972 84.2216 6.42104 83.0232 7.68525C81.8572 8.91865 80.9179 10.4142 80.2053 12.1718C79.4928 13.9294 79.1365 15.8721 79.1365 17.9997C79.1365 20.1273 79.4928 22.0699 80.2054 23.8275C80.918 25.5851 81.8573 27.096 83.0233 28.3603C84.2217 29.5937 85.6144 30.5496 87.2015 31.228C88.7886 31.9063 90.4566 32.2455 92.2057 32.2455C95.3151 32.2455 97.8414 31.783 99.7848 30.8579C101.761 29.9021 103.429 28.4528 104.789 26.5102L105.08 26.6024L104.984 29.5626C104.239 30.3026 103.38 30.9656 102.409 31.5514C101.437 32.1064 100.384 32.5844 99.2505 32.9853C98.1493 33.3553 96.9995 33.6328 95.8011 33.8178C94.6027 34.0338 93.4043 34.1419 92.2059 34.1419C89.7119 34.1419 87.3313 33.7564 85.0641 32.9855C82.7968 32.2146 80.8048 31.1354 79.0882 29.7478C77.3715 28.3294 76.0112 26.6335 75.0072 24.66C74.0031 22.6557 73.501 20.4356 73.501 17.9996C73.501 15.5636 74.0031 13.3589 75.0072 11.3855C76.0112 9.38112 77.3715 7.66976 79.0882 6.25138C80.8048 4.83294 82.7968 3.7537 85.0641 3.01365C87.3313 2.24275 89.7119 1.8573 92.2059 1.8573C93.4043 1.8573 94.6027 1.94981 95.8011 2.13482C96.9995 2.31983 98.1493 2.61277 99.2505 3.01365C100.384 3.38368 101.437 3.86163 102.409 4.44753C103.38 5.00256 104.239 5.65009 104.983 6.39013L105.178 11.2934ZM156.437 33.356C156.275 33.3278 156 33.297 155.611 33.2638C155.255 33.2638 154.867 33.2497 154.445 33.2215C154.024 33.2215 153.619 33.2074 153.231 33.1792H150.316C149.927 33.2074 149.539 33.2381 149.15 33.2714C148.794 33.2996 148.519 33.3303 148.324 33.3635L148.28 33.1782C148.604 33.0242 148.928 32.8237 149.252 32.5766C149.576 32.3302 149.754 31.8676 149.786 31.1891C149.815 30.449 149.83 29.6782 149.83 28.8764C149.86 28.0747 149.875 27.165 149.875 26.1475V22.6785V18.007V13.3355V9.82025C149.875 8.80269 149.86 7.90846 149.83 7.13756C149.83 6.33585 149.815 5.56497 149.786 4.82493C149.756 4.14653 149.578 3.68401 149.252 3.43735C148.927 3.15984 148.604 2.94407 148.28 2.79005L148.324 2.6048C148.519 2.66626 148.794 2.71251 149.15 2.74356C149.539 2.74356 149.927 2.75766 150.316 2.78586C150.737 2.81406 151.142 2.82817 151.531 2.82817H153.231C153.619 2.79996 154.024 2.78586 154.445 2.78586C154.867 2.75766 155.255 2.72693 155.611 2.69368C156 2.66548 156.275 2.63475 156.437 2.60149L156.481 2.78682C156.125 2.94081 155.785 3.15656 155.461 3.43408C155.17 3.68057 155.008 4.1431 154.975 4.82166C154.945 5.5617 154.913 6.33257 154.878 7.13429V28.8732C154.908 29.6749 154.94 30.4458 154.975 31.1858C155.005 31.8642 155.167 32.3267 155.461 32.5734C155.785 32.8199 156.125 33.0204 156.481 33.1749L156.437 33.356Z" fill="white"/>
</g>
<defs>
<clipPath id="clip0_43_2920">
<rect width="156" height="36" fill="white" transform="translate(0.481445)"/>
</clipPath>
</defs>
</svg>
